<?xml version="1.0" standalone="no"?>
<!DOCTYPE svg PUBLIC "-//W3C//DTD SVG 20010904//EN"
 "http://www.w3.org/TR/2001/REC-SVG-20010904/DTD/svg10.dtd">
<svg version="1.0" xmlns="http://www.w3.org/2000/svg"
 width="700.000000pt" height="700.000000pt" viewBox="0 0 700.000000 700.000000"
 preserveAspectRatio="xMidYMid meet">
<metadata>
Created by potrace 1.14, written by Peter Selinger 2001-2017
</metadata>
<g transform="translate(0.000000,700.000000) scale(0.100000,-0.100000)"
fill="#000000" stroke="none">
<path d="M3215 6880 c-600 -54 -1179 -264 -1660 -603 -384 -271 -730 -642
-961 -1029 -419 -705 -571 -1505 -438 -2308 185 -1121 933 -2084 1974 -2543
311 -137 630 -223 990 -269 163 -20 632 -17 800 5 545 74 1012 248 1455 542
1273 846 1823 2433 1345 3885 -168 511 -442 954 -829 1340 -540 538 -1196 859
-1971 965 -137 19 -561 28 -705 15z m1506 -1498 c9 -31 3 -187 -30 -778 -23
-406 -41 -757 -41 -778 0 -36 -8 -47 -96 -137 l-96 -97 -150 111 -149 112 5
45 c3 25 17 279 32 565 l27 520 236 238 c129 130 239 237 243 237 4 0 12 -17
19 -38z m-2145 -338 c115 -75 215 -142 222 -149 11 -10 8 -102 -18 -531 -18
-285 -35 -522 -38 -526 -4 -4 -94 -59 -199 -122 -106 -63 -197 -117 -202 -121
-6 -3 -24 22 -41 56 l-31 61 40 707 c23 388 41 718 41 734 0 15 4 27 9 27 4 0
102 -61 217 -136z m1663 -1406 c94 -73 170 -135 170 -138 0 -3 -74 -56 -165
-117 l-165 -113 -662 0 -662 0 -46 38 c-25 21 -103 80 -173 131 -69 52 -124
97 -120 100 3 3 96 56 207 118 l202 112 622 1 622 0 170 -132z m293 -298 l88
-98 -51 -764 -50 -763 -46 -67 c-26 -38 -49 -68 -52 -67 -3 0 -83 93 -177 207
l-171 207 31 602 31 601 27 22 c15 11 82 65 150 120 68 55 125 99 128 99 3 0
44 -45 92 -99z"/>
</g>
</svg>
